<?xml version="1.0" encoding="UTF-8"?>
<svg width="110px" height="23px" viewBox="0 0 110 23" version="1.1" xmlns="http://www.w3.org/2000/svg" xmlns:xlink="http://www.w3.org/1999/xlink">
    <!-- Generator: sketchtool 42 (36781) - http://www.bohemiancoding.com/sketch -->
    <title>F40F7D1B-5DE1-4AAC-B97D-D2BA9C29FEB6</title>
    <desc>Created with sketchtool.</desc>
    <defs></defs>
    <g id="Symbols" stroke="none" stroke-width="1" fill="none" fill-rule="evenodd">
        <g id="MOBILE_header" transform="translate(-105.000000, -30.000000)" fill="#414449">
            <path d="M154.5,46.7577779 C153.828115,47.3572269 153.168055,47.8201183 152.523703,48.1471912 C151.878981,48.4740794 151.114148,48.634105 150.224953,48.634105 C148.681242,48.634105 147.911789,47.8892286 147.911789,46.3998455 C147.911789,45.4561383 148.284135,44.7977422 149.028827,44.4161571 C149.410412,44.2169567 149.77241,44.0489854 150.117407,43.9220367 C150.771183,43.6679546 152.229892,43.5424842 154.5,43.5424842 L154.5,46.7577779 Z M169.303101,42.375 L162.2204,42.375 C162.41997,39.5059972 163.695001,38.0136574 166.037361,38.0136574 C168.216369,38.0136574 169.303101,39.5059972 169.303101,42.375 Z M196.208272,36.7604321 L196.208272,50.0233336 C196.208272,50.4230278 196.57378,50.625 197.354136,50.625 C198.134491,50.625 198.500185,50.4232126 198.5,50.0233336 L198.5,40.0330097 L198.908379,39.567716 C199.162461,39.2408278 199.564743,38.9244725 200.118549,38.6153239 C200.672725,38.3067296 201.30636,38.1498455 202.023703,38.1498455 C202.740677,38.1498455 203.319245,38.3865576 203.764027,38.8588731 C204.208625,39.3313735 204.458272,39.9748018 204.458272,40.7924842 L204.458272,50.0237031 C204.458272,50.4232126 204.82378,50.625 205.604136,50.625 C206.384491,50.625 206.75,50.4235822 206.75,50.0237031 C206.723206,46.7040048 206.786218,43.3364467 206.75,40.0333793 C207.857428,38.7807082 208.918106,38.1498455 210.044567,38.1498455 C210.897729,38.1498455 211.546885,38.3865576 211.992407,38.8588731 C212.437004,39.3313735 212.708272,39.9748018 212.708272,40.7924842 L212.708272,50.0237031 C212.708272,50.4232126 213.020562,50.625 213.804243,50.625 C214.587925,50.625 215,50.4235822 215,50.0237031 L215,40.5775769 C215,39.7063063 214.814104,38.9608756 214.541913,38.3431326 C214.269352,37.7263137 213.900333,37.2632375 213.446311,36.9537193 C212.629368,36.4270763 211.710052,36.1659723 210.674691,36.1659723 C209.058729,36.1659723 207.61277,36.914914 206.342175,38.4218519 C205.724432,36.914914 204.42538,36.1659723 202.446311,36.1659723 C200.95046,36.1659723 199.637179,36.7713345 198.5,37.9922221 L198.5,36.7604321 C198.5,36.3609226 198.134307,36.1659723 197.354136,36.1659723 C196.57415,36.1659723 196.208272,36.3609226 196.208272,36.7604321 Z M181.541728,36.7458339 L181.541728,46.198982 C181.541728,47.5795256 182.162982,48.6559098 182.952577,49.4360805 C183.742541,50.2171751 184.892101,50.6105866 186.390169,50.6105866 C187.813768,50.6105866 189.080853,49.9924741 190.25,48.7627167 L190.25,50.0231488 C190.25,50.4221039 190.643227,50.625 191.403256,50.625 C192.1631,50.625 192.541728,50.4459414 192.541728,50.0874546 L192.541728,36.7456491 C192.541728,36.346694 192.190818,36.1441675 191.410278,36.1441675 C190.629922,36.1441675 190.25,36.346694 190.25,36.7456491 L190.25,46.7143529 C189.269705,47.986057 188.141396,48.6195068 186.834028,48.6195068 C185.944278,48.6195068 185.259458,48.3877839 184.778642,47.9248925 C184.297457,47.4618163 183.833272,46.8126596 183.833272,45.9770528 L183.833272,36.7458339 C183.833272,36.3468788 183.467578,36.1443522 182.687592,36.1443522 C181.907607,36.1443522 181.541728,36.3468788 181.541728,36.7458339 Z M161.375185,37.9349382 C160.303605,39.187794 159.770864,41.0253158 159.770864,43.4493516 C159.770864,45.8732025 160.314507,47.6759844 161.403827,48.8562189 C162.493331,50.036823 164.175632,50.6246304 166.445555,50.625 C167.734629,50.625 168.871808,50.4232126 169.861527,50.0237031 C170.851062,49.6243784 171.344073,49.2483369 171.344073,48.8848609 C171.344073,48.7034001 171.23431,48.4247413 171.007391,48.0612653 C170.780103,47.6983436 170.572588,47.5170676 170.391312,47.5170676 C170.354724,47.5170676 170.1631,47.6079828 169.818472,47.7892588 C168.78348,48.3705987 167.65129,48.6631165 166.416728,48.6631165 C165.072588,48.6631165 164.066053,48.3112821 163.394352,47.6031783 C162.722282,46.8950746 162.329055,45.9450847 162.220031,44.4374076 L170.828148,44.4374076 C171.46437,44.2293375 171.69443,43.8357412 171.730648,43.1627469 C171.730648,38.4236998 169.800548,36.0515892 165.95125,36.0515892 C163.971996,36.0514044 162.446395,36.6820824 161.375185,37.9349382 Z M147.897191,36.6386574 C146.834851,37.0291124 146.300262,37.4179042 146.300262,37.798935 C146.300262,37.980211 146.416308,38.2518479 146.643966,38.6155087 C146.8707,38.9789847 147.070639,39.1597064 147.252654,39.1597064 C147.288872,39.1597064 147.501562,39.0586279 147.882778,38.8588731 C148.990206,38.2961967 150.199083,38.0136574 151.506636,38.0136574 C153.503813,38.0136574 154.5,38.773132 154.5,40.298179 L154.5,41.5802312 C152.920441,41.6166342 151.509777,41.7127234 150.274845,41.866651 C149.039914,42.0213177 147.934703,42.4601868 146.944799,43.1773451 C145.95508,43.8946882 145.455231,44.9657136 145.455231,46.4000302 C145.455231,47.8349012 145.883567,48.8970568 146.737283,49.5868667 C147.590445,50.2776005 148.719309,50.6251848 150.117407,50.6251848 C151.84073,50.6251848 153.299624,50.0122463 154.5,48.7847064 L154.5,50.0237031 C154.5,50.422843 154.865693,50.6264783 155.645864,50.625 C156.42585,50.6233369 156.791913,50.4230278 156.791728,50.0237031 L156.791728,40.326821 C156.791913,38.98305 156.317934,37.9364165 155.373858,37.1830399 C154.429411,36.4296634 153.210187,36.0514044 151.721358,36.0514044 C150.232714,36.0514044 148.959716,36.2480177 147.897191,36.6386574 Z M134.111527,37.4981017 C133.47586,38.0251142 132.972316,38.7807082 132.600339,39.7610032 C132.228178,40.7416678 132.041728,41.9084128 132.041728,43.270293 C132.041728,45.8488106 132.595535,47.7227355 133.703148,48.8848609 C134.810392,50.0469863 136.493247,50.625 138.744876,50.625 C139.888523,50.625 140.88471,50.4736595 141.738426,50.173935 C142.591587,49.8743952 143.020293,49.5624748 143.020293,49.2357714 C143.020293,49.0177228 142.909051,48.730379 142.690818,48.3763271 C142.472954,48.0220904 142.270612,47.846358 142.089336,47.846358 C142.070857,47.846358 142.031128,47.8620649 141.967561,47.8894134 C141.90381,47.9163923 141.850222,47.9359797 141.79571,47.9537193 C140.851633,48.4260348 139.823663,48.6627469 138.716234,48.6627469 C137.190818,48.6627469 136.102053,48.2344107 135.457701,47.3808796 C134.812794,46.527718 134.333272,45.1451418 134.333272,43.2200309 C134.333272,39.7521334 135.810829,38.0136574 138.444043,38.0136574 C139.442632,38.0136574 140.428471,38.2298582 141.409135,38.6654012 C141.445353,38.6840646 141.482126,38.6990324 141.509475,38.7084565 L141.617021,38.7515119 C141.662109,38.7699906 141.691675,38.7801539 141.709968,38.7801539 C141.87332,38.7801539 142.059216,38.5938886 142.268764,38.2215428 C142.477204,37.8493818 142.583826,37.5409723 142.583826,37.3048145 C142.583826,36.9781111 142.165653,36.6928 141.330416,36.4383483 C140.494994,36.184451 139.547406,36.0515892 138.49449,36.0515892 C136.769134,36.0514044 135.310056,36.5353615 134.111527,37.4981017 Z M125.625,34.3755712 L125.625,48.5411571 C125.625,49.8886238 124.98268,50.625 123.63429,50.625 L109.468704,50.625 C108.121052,50.625 107.291728,49.8886238 107.291728,48.5411571 C107.31649,40.2634391 115.032086,32.2664124 123.63429,32.291913 C124.982126,32.2915435 125.625,33.0281044 125.625,34.3755712 Z M109.461682,32.2915435 L110.034522,33.7811114 L111.631636,33.8672221 L110.392824,34.8768983 L110.800833,36.4165435 L109.461682,35.5500773 L108.122346,36.4165435 L108.53054,34.8768983 L107.291728,33.8672221 L108.888657,33.7811114 L109.461682,32.2915435 Z M174.208272,30.6014817 L174.208272,46.8653239 C174.208272,48.2637918 174.565465,49.2405759 175.282623,49.7941977 C175.999782,50.3483739 176.81654,50.625 177.724768,50.625 C179.049691,50.625 179.708272,50.3533631 179.708272,49.8084263 C179.708272,49.6271502 179.652651,49.3712203 179.543627,49.0349079 C179.434417,48.6989652 179.298784,48.5263741 179.135432,48.5263741 C179.099029,48.5263741 178.973928,48.5527987 178.75588,48.5982563 C178.538016,48.6438987 178.276727,48.6625622 177.968133,48.6625622 C176.987653,48.6625622 176.5,47.9943724 176.5,46.6502318 L176.5,30.6014817 C176.5,30.2023418 176.134122,30 175.354136,30 C174.57415,30 174.208272,30.2023418 174.208272,30.6014817 Z M108.666728,30 C106.639615,30 105,31.6397998 105,33.6665435 L105,49.25 C105,51.2769285 106.639615,52.9165435 108.666728,52.9165435 L124.25,52.9165435 C126.276744,52.9165435 127.916728,51.2769285 127.916728,49.25 L127.916728,33.6665435 C127.916728,31.639615 126.276744,30 124.25,30 L108.666728,30 Z" id="LOGO_Caelum-Copy"></path>
        </g>
    </g>
</svg>